<?xml version="1.0" encoding="UTF-8"?>
<!-- Generator: Adobe Illustrator 14.0.0, SVG Export Plug-In . SVG Version: 6.00 Build 43363)  -->
<!DOCTYPE svg PUBLIC "-//W3C//DTD SVG 1.1//EN" "http://www.w3.org/Graphics/SVG/1.1/DTD/svg11.dtd">
<svg version="1.1" id="Layer_1" xmlns="http://www.w3.org/2000/svg" xmlns:xlink="http://www.w3.org/1999/xlink" x="0px" y="0px" width="250px" height="250px" viewBox="0 0 250 250" enable-background="new 0 0 250 250" xml:space="preserve">
<g>
	<path fill="#FFCC00" d="M125,245c-16.199,0-31.914-3.173-46.709-9.431c-14.29-6.044-27.123-14.696-38.143-25.717   c-11.02-11.02-19.672-23.854-25.717-38.143C8.173,156.915,5,141.199,5,125s3.173-31.914,9.431-46.709   c6.044-14.29,14.697-27.123,25.717-38.144c11.02-11.02,23.853-19.672,38.143-25.717C93.086,8.173,108.801,5,125,5   s31.914,3.173,46.709,9.431c14.291,6.045,27.123,14.697,38.143,25.717c11.021,11.021,19.674,23.854,25.717,38.144   C241.826,93.086,245,108.801,245,125s-3.174,31.915-9.432,46.71c-6.043,14.289-14.695,27.123-25.717,38.143   c-11.02,11.021-23.852,19.673-38.143,25.717C156.914,241.827,141.199,245,125,245L125,245z M125,40.655   c-46.507,0-84.344,37.837-84.344,84.345S78.493,209.345,125,209.345c46.508,0,84.344-37.837,84.344-84.345   S171.508,40.655,125,40.655L125,40.655z"/>
	<path fill="#8693BB" d="M125.236,206.913c-45.519,0-82.552-37.033-82.552-82.553c0-16.032,4.427-31.396,12.811-44.506   l137.681,91.589C177.732,193.673,152.418,206.913,125.236,206.913z"/>
	<path fill="#BEC4DD" d="M131.902,130.683L55.495,79.854c-8.384,13.109-12.811,28.474-12.811,44.506c0,2.128,0.081,4.235,0.24,6.322   H131.902z"/>
	<path fill="#FDEDC2" d="M71.085,87.709C83.328,70.237,103.25,59.84,124.605,59.84c8.424,0,16.604,1.588,24.201,4.616v74.978   L71.085,87.709z"/>
	<path fill="#003366" d="M54.574,48.588l6.498,3.587l-3.96,3.577C56.229,53.411,55.326,51.047,54.574,48.588 M78.855,37.974   l0.856-0.432c1.902-0.957,3.195-2.649,2.119-4.79c-1.412-2.806-4.16-2.346-4.897-1.976l-1.046,0.526   c-0.238,0.12-0.273,0.228-0.154,0.465L78.855,37.974 M32.618,132.762c0.489-0.48,0.733-1.094,0.733-1.838   c0-0.645-0.203-1.207-0.608-1.691c-0.406-0.485-1.402-1.096-2.988-1.832c-0.639,0.336-1.155,0.8-1.544,1.391   c-0.39,0.593-0.584,1.224-0.584,1.895c0,0.689,0.245,1.328,0.733,1.915c0.489,0.587,1.242,0.88,2.259,0.88   C31.462,133.48,32.129,133.24,32.618,132.762z M28.211,121.167c0-0.802,0.242-1.412,0.724-1.831   c0.483-0.419,1.061-0.629,1.731-0.629c0.646,0,1.215,0.233,1.708,0.699c0.491,0.466,0.738,1.122,0.738,1.971   c0,1.295-0.605,2.306-1.813,3.032c-1.011-0.456-1.778-0.903-2.302-1.341C28.473,122.63,28.211,121.996,28.211,121.167z M125,10.156   C61.575,10.156,10.157,61.575,10.157,125c0,63.426,51.418,114.844,114.843,114.844c63.426,0,114.844-51.418,114.844-114.844   C239.844,61.575,188.426,10.156,125,10.156z M216.299,70.992l-0.592-1.114l0.816-0.434l6.438,12.126   c-2.494,0.976-2.682,1.043-2.813,0.796c-0.172-0.322,0-0.477,0.334-0.686c0.408-0.248,0.305-1.875-1.193-4.696l-0.945-1.781   c-0.131-0.248-0.246-0.282-0.492-0.15l-5.42,2.877l1.223,2.301c1.393,2.623,1.742,2.564,2.459,2.184l0.867-0.46l0.393,0.742   l-4.355,2.313l-0.393-0.742l0.891-0.474c0.42-0.223,0.641-0.467-0.752-3.089l-1.223-2.302l-1.807,0.959   c-5.271,2.798-5.293,2.937-4.846,3.778l0.459,0.866c0.711,1.336,2.496,4.701,4.266,4.746c0.227,0.007,0.4-0.022,0.52,0.2   c0.09,0.173,0.02,0.338-0.154,0.43c-0.223,0.118-0.658,0.191-2.691,0.604l-6.176-11.63l0.818-0.434l0.59,1.113   c0.172,0.321,0.346,0.292,0.594,0.161l10.318-5.479C216.699,71.984,216.719,71.783,216.299,70.992z M198.77,51.11   c0.084-0.074,0.652-0.275,2.637-1.158l9.537,10.861c-1.133,1.853-1.406,2.391-1.49,2.464c-0.17,0.148-0.363,0.096-0.494-0.052   c-0.166-0.189-0.092-0.402,0.049-0.751c0.592-1.45-1.381-3.781-2.23-4.75l-0.352-0.4l-8.988,7.893   c-2.779,2.439-2.752,2.64-2.162,3.313l1.238,1.41l-0.693,0.61l-5.748-6.547l0.693-0.61l1.387,1.579   c0.24,0.273,0.404,0.205,0.613,0.02l11.516-10.109l-0.352-0.4c-0.85-0.968-2.906-3.226-4.422-2.827   c-0.363,0.095-0.584,0.141-0.75-0.049C198.629,51.459,198.602,51.259,198.77,51.11z M174.67,49.848l1.713,1.218   c0.295,0.212,0.439,0.107,0.602-0.121l8.887-12.482l-0.434-0.309c-1.049-0.747-3.568-2.473-4.953-1.737   c-0.332,0.176-0.537,0.271-0.74,0.125c-0.16-0.114-0.232-0.303-0.104-0.485c0.066-0.092,0.572-0.418,2.299-1.732l11.775,8.383   c-0.676,2.063-0.818,2.648-0.883,2.74c-0.131,0.182-0.332,0.176-0.492,0.063c-0.205-0.146-0.184-0.371-0.125-0.743   c0.242-1.547-2.213-3.363-3.264-4.11l-0.434-0.309l-6.936,9.744c-2.146,3.012-2.074,3.201-1.344,3.721l1.529,1.088l-0.535,0.754   l-7.098-5.053L174.67,49.848z M152.807,39.191l1.172,0.467c0.338,0.135,0.453-0.001,0.557-0.261l4.322-10.853   c1.369-3.436,1.254-3.602,0.42-3.934l-1.172-0.467l0.344-0.858l12.752,5.079c-1.271,2.358-1.369,2.53-1.631,2.427   c-0.338-0.135-0.307-0.364-0.188-0.738c0.15-0.453-0.98-1.627-3.947-2.809l-1.873-0.747c-0.262-0.104-0.369-0.057-0.475,0.204   l-2.27,5.699l2.42,0.964c2.76,1.099,2.988,0.828,3.289,0.073l0.363-0.91l0.779,0.311l-1.824,4.581l-0.779-0.312l0.373-0.937   c0.176-0.443,0.186-0.771-2.574-1.869l-2.42-0.964l-0.756,1.899c-2.209,5.544-2.135,5.663-1.25,6.016l0.91,0.362   c1.406,0.56,4.945,1.97,6.322,0.859c0.176-0.141,0.291-0.275,0.525-0.183c0.182,0.072,0.234,0.244,0.16,0.427   c-0.092,0.234-0.379,0.572-1.66,2.203l-12.232-4.872L152.807,39.191z M128.006,17.622l7.215,0.776l-0.1,0.919l-1.252-0.135   c-0.363-0.039-0.436,0.122-0.467,0.4l-1.008,9.359c-0.236,2.2-0.5,6.229,4.039,6.719c1.254,0.135,5.379,0.297,5.98-5.302   l0.469-4.346c0.164-1.532,0.381-3.537,0.33-4.896c-0.047-0.879-0.236-0.955-0.988-1.036l-1.113-0.12l0.098-0.919l5.209,0.561   l-0.098,0.919l-0.781-0.084c-0.725-0.077-0.863-0.093-0.902,0.27l-1.061,9.86c-0.553,5.125-4.494,6.674-8.031,6.293   c-5.684-0.611-6.857-3.838-6.531-6.874l0.799-7.409c0.395-3.677,0.24-3.807-0.652-3.902l-1.252-0.135L128.006,17.622z    M207.428,125.199c0,45.746-37.086,82.833-82.833,82.833s-82.833-37.087-82.833-82.833c0-45.747,37.086-82.833,82.833-82.833   S207.428,79.452,207.428,125.199z M105.756,19.046c5.38-0.925,9.481,1.952,10.402,7.309c0.633,3.683-0.528,7.1-3.066,9.245   l-0.026-0.005c2,1.287,3.645,2.033,4.955,1.808c0.607-0.104,1.039-0.405,1.548-0.749l0.454,0.661   c-1.138,0.82-3.067,1.994-4.45,2.214c-1.521,0.242-3.387-0.888-5.249-2.283l-0.038-0.024c-0.592,0.218-1.222,0.387-1.889,0.502   c-5.38,0.924-9.481-1.952-10.402-7.309C97.051,24.92,100.1,20.019,105.756,19.046z M77.248,29.497   c3.554-1.788,6.389-0.393,7.422,1.66c1.095,2.178,0.286,4.31-1.64,5.655c3.977,2.295,5.521,3.243,7.164,3.891   c1.041,0.386,1.317,0.498,2.292,0.007l0.416,0.826l-2.853,1.436c-0.55,0.277-1.001,0.504-1.352,0.43   c-1.028-0.236-4.366-2.258-7.893-4.842l-1.552,0.78l1.511,3.004c1.663,3.303,1.863,3.328,2.664,2.925l1.126-0.566l0.416,0.826   l-6.482,3.261l-0.416-0.825l1.126-0.567c0.325-0.163,0.3-0.339,0.174-0.589L74.12,36.371c-1.662-3.304-1.863-3.328-2.664-2.926   l-1.126,0.567l-0.416-0.826L77.248,29.497z M54.015,44.551c0.146-0.132,0.339-0.042,0.452,0.082   c0.226,0.25-0.153,0.667,0.223,1.083c0.657,0.728,8.506,4.735,12.484,6.842c2.145,1.12,2.555,1.24,3.262,0.602l0.499-0.45   l0.62,0.686l-5.238,4.732l-0.62-0.687l0.935-0.845c0.396-0.356,0.382-0.496-0.139-0.78l-4.496-2.47l-4.428,4   c0.596,1.537,1.559,4.065,2.122,4.688c0.356,0.396,0.642,0.252,0.995-0.067l1.185-1.071l0.62,0.687l-4.22,3.812l-0.619-0.686   l0.665-0.602c0.312-0.281,0.343-0.498,0.203-0.862c-1.193-3.075-3.481-9.954-5.868-16.858   C52.931,45.983,53.703,44.832,54.015,44.551z M29.472,76.55l13.982,1.359l-8.149-11.188l2.431-4.095l0.795,0.471l-0.643,1.085   c-0.186,0.313-0.07,0.446,0.17,0.59l10.046,5.962c3.18,1.887,3.362,1.8,3.819,1.028l0.644-1.084l0.795,0.472l-3.703,6.239   l-0.795-0.471l0.644-1.085c0.186-0.313,0.07-0.446-0.171-0.59l-11.419-6.776l-0.028,0.048l8.957,12.353   c0.091,0.119,0.337,0.363,0.238,0.531c-0.1,0.169-0.432,0.069-0.581,0.046l-14.742-1.615l-0.029,0.049l6.36,3.774   c1.325,0.786,3.06,1.815,4.316,2.333c0.818,0.322,0.967,0.183,1.353-0.468l0.572-0.964l0.795,0.472l-2.674,4.505l-0.795-0.472   l0.4-0.674c0.372-0.627,0.443-0.747,0.13-0.934l-10.166-6.033c-2.096-1.243-3.3-1.795-4.101-0.446l-0.386,0.65l-0.795-0.472   L29.472,76.55z M24.474,135.441h-7.665v-0.965h2.206c0.29,0,0.334-0.176,0.334-0.468v-11.229c0-3.714-0.223-4.532-0.401-4.708   s-0.446-0.205-1.047-0.205h-1.025l-0.044-0.936c1.671-0.117,3.32-0.351,5.013-0.613V130.5c0,3.859,0.156,3.977,0.869,3.977h1.76   V135.441z M25.363,130.854c0-2.097,0.923-3.625,2.771-4.585c-1.534-1.025-2.301-2.549-2.301-4.57c0-1.565,0.424-2.854,1.271-3.865   c0.847-1.01,2.032-1.516,3.553-1.516c1.387,0,2.502,0.451,3.342,1.355c0.841,0.903,1.261,2.101,1.261,3.592   c0,1.817-0.776,3.196-2.331,4.138c1.9,1.184,2.849,2.855,2.849,5.018c0,1.603-0.475,2.93-1.424,3.984   c-0.95,1.051-2.23,1.578-3.841,1.578c-1.701,0-2.984-0.487-3.85-1.461C25.796,133.55,25.363,132.325,25.363,130.854z    M29.558,175.74c-2.58-5.101-0.512-7.841,2.213-9.22l6.65-3.362c3.3-1.669,3.324-1.869,2.919-2.67l-0.569-1.125l0.825-0.417   l3.274,6.476l-0.825,0.417l-0.569-1.125c-0.165-0.325-0.34-0.3-0.59-0.173l-8.4,4.248c-1.975,0.999-5.499,2.97-3.438,7.044   c0.569,1.125,2.677,4.674,7.703,2.133l3.9-1.973c1.375-0.695,3.175-1.605,4.287-2.388c0.712-0.517,0.673-0.717,0.332-1.393   l-0.505-0.999l0.825-0.418l2.364,4.675l-0.825,0.418l-0.354-0.699c-0.329-0.65-0.392-0.776-0.717-0.611l-8.85,4.476   C34.608,181.38,31.164,178.915,29.558,175.74z M53.235,206.027c-0.155-0.161-0.109-0.438-0.055-1.11l1.601-18.67l-5.607,5.365   c-1.113,1.065-2.571,2.459-3.407,3.531c-0.531,0.701-0.436,0.882,0.087,1.429l0.775,0.81l-0.668,0.639l-3.622-3.785l0.668-0.639   l0.542,0.566c0.504,0.526,0.601,0.628,0.863,0.376l9.211-8.813c1.133-1.085,1.618-2.401,0.863-3.19l-0.562-0.588l0.668-0.639   l3.351,3.502l-1.442,16.852l4.292-4.107c1.113-1.064,2.571-2.459,3.407-3.531c0.53-0.701,0.436-0.881-0.087-1.428l-0.775-0.811   l0.668-0.639l3.622,3.785l-0.668,0.64l-0.542-0.567c-0.504-0.526-0.601-0.628-0.864-0.376l-11.882,11.37   C53.53,206.134,53.371,206.17,53.235,206.027z M80.084,205.577l-1.062-0.681c-0.306-0.196-0.444-0.085-0.595,0.151l-6.303,9.835   c-1.995,3.113-1.915,3.298-1.16,3.782l1.062,0.68l-0.499,0.778l-6.108-3.914l0.499-0.778l1.062,0.68   c0.306,0.196,0.444,0.085,0.595-0.15l6.303-9.836c1.995-3.113,1.914-3.299,1.159-3.781l-1.061-0.681l0.499-0.778l6.109,3.915   L80.084,205.577z M104.701,215.614l-1.215-0.429c-0.158-0.056-0.185-0.066-0.682,0.501L91.073,228.86   c-0.235,0.243-0.37,0.374-0.555,0.309c-0.186-0.065-0.201-0.189-0.214-0.402l-0.896-15.024c-0.225-3.229-0.341-3.657-1.001-3.891   l-0.846-0.298l0.309-0.872l6.523,2.307l-0.308,0.872l-1.109-0.393c-0.291-0.103-0.449-0.159-0.515,0.026   c-0.047,0.132,0.083,1.277,0.18,2.768l0.644,10.359l5.796-6.389c0.587-0.653,2.217-2.572,2.47-3.286   c0.121-0.344-0.098-0.48-0.494-0.62l-1.399-0.495l0.308-0.872l5.044,1.784L104.701,215.614z M119.683,223.92   c2.962,0.222,3.098-0.105,3.159-0.916l0.073-0.978l0.838,0.063l-0.368,4.917l-0.838-0.063l0.075-1.006   c0.035-0.475-0.053-0.791-3.015-1.012l-2.598-0.194l-0.152,2.04c-0.445,5.95-0.339,6.042,0.611,6.113l0.978,0.073   c1.509,0.112,5.309,0.396,6.289-1.075c0.126-0.187,0.195-0.351,0.446-0.332c0.195,0.015,0.297,0.163,0.282,0.358   c-0.019,0.252-0.19,0.66-0.925,2.6l-13.131-0.981l0.069-0.922l1.257,0.095c0.363,0.026,0.431-0.137,0.452-0.416l0.871-11.65   c0.275-3.688,0.116-3.812-0.778-3.879l-1.257-0.094l0.069-0.922l13.69,1.022c-0.506,2.632-0.549,2.825-0.829,2.805   c-0.363-0.027-0.402-0.256-0.401-0.648c0.007-0.478-1.423-1.259-4.608-1.496l-2.011-0.15c-0.279-0.021-0.369,0.057-0.39,0.336   l-0.458,6.118L119.683,223.92z M151.125,231.104c-0.607,0.112-1.104,0.204-1.42,0.034c-0.92-0.513-3.561-3.387-6.225-6.853   l-1.709,0.316l0.613,3.305c0.672,3.636,0.857,3.716,1.74,3.553l1.238-0.229l0.168,0.909l-7.133,1.321l-0.168-0.909l1.238-0.23   c0.359-0.066,0.383-0.241,0.332-0.517l-2.127-11.486c-0.674-3.636-0.859-3.716-1.74-3.553l-1.24,0.229l-0.168-0.909l8.072-1.493   c3.91-0.725,6.242,1.407,6.662,3.667c0.443,2.396-0.93,4.217-3.154,4.971c3.178,3.314,4.395,4.656,5.791,5.736   c0.891,0.662,1.125,0.846,2.199,0.646l0.168,0.909L151.125,231.104z M169.799,225.188c-1.396,0.65-2.963,1.07-4.508,1.202   c-0.928-1.329-1.402-1.881-1.543-2.187c-0.07-0.151-0.201-0.432,0.18-0.608c0.305-0.143,0.473,0.088,0.668,0.307   c1.133,1.172,3.576,0.777,4.871,0.174c1.955-0.91,3.477-2.885,2.473-5.044c-2.01-4.317-9.379,1.491-12.086-4.323   c-1.443-3.1,1.023-6.163,3.869-7.487c1.041-0.484,2.18-0.892,3.348-0.972c0.332,0.649,0.906,1.617,1.098,2.024   c0.141,0.304-0.014,0.438-0.191,0.521c-0.254,0.118-0.398-0.062-0.557-0.267c-0.736-0.985-2.654-0.525-3.568-0.1   c-1.627,0.756-2.965,2.461-2.113,4.29c1.867,4.013,9.262-1.746,12.121,4.4C174.25,217.956,175.486,222.54,169.799,225.188z    M186.945,214.483l-0.557-0.739l1.008-0.756c0.293-0.22,0.236-0.388,0.068-0.611l-7.012-9.343   c-2.221-2.957-2.422-2.945-3.139-2.408l-1.008,0.757l-0.555-0.739l5.803-4.355l0.555,0.74l-1.008,0.757   c-0.291,0.218-0.236,0.386-0.068,0.61l7.012,9.343c2.221,2.957,2.422,2.945,3.139,2.407l1.008-0.757l0.557,0.74L186.945,214.483z    M204.164,199.194l-0.703-0.6l1.361-1.601c0.236-0.277,0.145-0.429-0.07-0.61l-11.674-9.928l-0.344,0.406   c-0.836,0.981-2.771,3.344-2.158,4.784c0.148,0.347,0.225,0.559,0.061,0.751c-0.127,0.149-0.32,0.204-0.492,0.06   c-0.084-0.073-0.365-0.606-1.527-2.44l9.365-11.012c1.996,0.852,2.568,1.044,2.654,1.116c0.17,0.146,0.146,0.347,0.02,0.496   c-0.164,0.191-0.387,0.149-0.75,0.06c-1.521-0.374-3.541,1.917-4.377,2.898l-0.346,0.405l9.113,7.75   c2.816,2.396,3.012,2.34,3.592,1.657l1.217-1.43l0.705,0.599L204.164,199.194z M220.268,176.019l-0.836-0.398l0.545-1.138   c0.158-0.328,0.029-0.451-0.223-0.572l-5.611-2.683l-7.635,0.447c-2.941,0.178-3.051,0.405-3.242,0.81l-0.436,0.909l-0.834-0.398   l3.092-6.47l0.836,0.398l-0.641,1.34c-0.049,0.101-0.061,0.189,0.066,0.25c0.102,0.048,0.525,0.002,0.613,0.014l8.1-0.443   c-3.725-5.197-4.91-6.354-5.188-6.486c-0.305-0.146-0.426,0.045-0.596,0.398l-0.629,1.314l-0.834-0.398l2.248-4.701l0.834,0.398   l-0.301,0.632c-0.268,0.557-0.201,0.681,0.26,1.337l5.535,7.645l2.73,1.306c3.336,1.595,3.51,1.492,3.896,0.683l0.543-1.137   l0.834,0.399L220.268,176.019z M222.943,134.404c-0.951,1.051-2.23,1.578-3.842,1.578c-1.701,0-2.984-0.487-3.85-1.461   c-0.867-0.972-1.301-2.196-1.301-3.668c0-2.097,0.924-3.625,2.771-4.585c-1.535-1.025-2.301-2.549-2.301-4.57   c0-1.565,0.424-2.854,1.27-3.865c0.848-1.01,2.033-1.516,3.555-1.516c1.387,0,2.502,0.451,3.342,1.355   c0.842,0.903,1.262,2.101,1.262,3.592c0,1.817-0.777,3.196-2.332,4.138c1.9,1.184,2.85,2.855,2.85,5.018   C224.367,132.022,223.893,133.35,222.943,134.404z M225.539,135.441v-0.965h2.205c0.289,0,0.334-0.176,0.334-0.468v-11.229   c0-3.714-0.223-4.532-0.4-4.708c-0.18-0.176-0.447-0.205-1.049-0.205h-1.023l-0.045-0.936c1.67-0.117,3.32-0.351,5.012-0.613V130.5   c0,3.859,0.158,3.977,0.869,3.977h1.762v0.965H225.539z M221.332,129.232c0.404,0.484,0.607,1.047,0.607,1.691   c0,0.744-0.244,1.357-0.732,1.838c-0.488,0.479-1.156,0.719-2,0.719c-1.016,0-1.77-0.293-2.258-0.88   c-0.49-0.587-0.734-1.226-0.734-1.915c0-0.671,0.195-1.302,0.584-1.895c0.391-0.591,0.906-1.055,1.545-1.391   C219.93,128.137,220.926,128.747,221.332,129.232z M216.799,121.167c0-0.802,0.242-1.412,0.725-1.831s1.061-0.629,1.73-0.629   c0.646,0,1.215,0.233,1.709,0.699c0.49,0.466,0.738,1.122,0.738,1.971c0,1.295-0.605,2.306-1.813,3.032   c-1.012-0.456-1.779-0.903-2.303-1.342C217.063,122.63,216.799,121.996,216.799,121.167z M141.768,216.128l-1.15,0.213   c-0.264,0.048-0.326,0.141-0.277,0.403l1.264,6.829l0.941-0.174c2.094-0.388,3.809-1.652,3.373-4.007   C145.346,216.305,142.578,215.978,141.768,216.128 M109.027,36.591c0.074-0.013,0.175-0.031,0.298-0.061l-0.129-0.137   c-0.569-0.452-0.965-0.772-1.485-1.197c0.914-0.135,2.328-0.854,2.708-1.433c0.536,0.389,1.053,0.756,1.55,1.099l0.087,0.05   c1.01-1.173,1.735-3.157,1.157-6.517c-1.225-7.123-5.549-8.654-8.087-8.218c-0.855,0.147-5.402,1.127-4.188,8.195   C102.164,35.496,106.489,37.027,109.027,36.591"/>
	<path d="M49.184,96.057c0.887-2.281,1.077-2.345,1.077-2.345l0.711,1.062c0-3.123,1.373-3.359,1.373-3.359l0.189,3.17   c0.804-2.366,3.028-2.556,3.028-2.556c0.047,1.703-1.278,2.745-1.278,2.745c1.467-1.089,3.833-0.663,3.833-0.663   c-1.278,1.515-3.17,1.562-3.17,1.562c-0.142,1.041-1.419,1.562-1.419,1.562l2.319-0.662c0,0.852-0.568,1.845-0.568,1.845   c1.23-1.798,4.637-2.413,4.637-2.413c-0.142,1.656-2.177,3.218-2.177,3.218l2.129,0.095c0.521-1.562,1.845-2.366,1.845-2.366   c0.332,1.089-0.047,2.887-0.047,2.887c0.662-1.372,2.98-2.508,2.98-2.508c0.379,2.744-1.372,3.454-1.372,3.454l1.041,0.283   c0.426-1.324,2.46-1.561,2.46-1.561c0.142,1.514-1.136,2.696-1.136,2.696c2.129,0.095,3.076,1.987,3.076,1.987l-2.65-0.283   c0.521,1.041-0.095,2.744-0.095,2.744c-1.514-0.805-1.183-2.839-1.183-2.839l-2.555,0.142c1.609,0.805,0.994,2.981,0.994,2.981   c-1.893-0.521-2.603-2.035-2.603-2.035l-1.419,1.23c2.318,0.662,2.839,2.555,2.839,2.555c-0.757,0.237-1.987-0.095-1.987-0.095   c0.615,1.467,0.142,3.313,0.142,3.313c-2.413-1.893-1.893-4.59-1.893-4.59c-1.278-0.284-1.419-1.088-1.419-1.088   c-0.568,0.615-1.893,0.615-1.893,0.615c1.656,0.426,1.893,2.318,1.893,2.318c-1.467,0.142-2.981-0.994-2.981-0.994l0.709,1.609   c2.129,0.852,1.987,2.839,1.987,2.839c-1.372-0.284-2.176-0.946-2.176-0.946c0,1.183-0.426,1.987-0.426,1.987   c-1.419-0.946-1.514-2.556-1.514-2.556c-3.264-0.236-3.17-1.703-3.17-1.703v1.798l2.224,0.521l-1.325,0.899   c2.46,0.047,3.359,2.934,3.359,2.934c-1.798,0.095-3.265-0.427-3.265-0.427c1.514,0.853,1.041,2.366,1.041,2.366   c-1.514-0.189-2.365-1.703-2.365-1.703c0,1.277-2.035,2.603-2.035,2.603c2.083-0.71,3.786,0,3.786,0   c-0.142,0.804-0.852,1.893-0.852,1.893c1.798-1.515,3.832-0.521,3.832-0.521c-1.088,1.656-3.169,2.034-3.169,2.034   c3.028,0.379,3.548,1.751,3.548,1.751c-3.17,0.757-5.11-0.852-5.11-0.852c0.852,1.041,0.804,2.271,0.804,2.271   c-2.224-0.709-2.792-1.939-2.792-1.939c0.047,1.846-1.136,2.461-1.136,2.461c1.75-0.521,2.744,0.426,2.744,0.426   c-0.994,1.229-2.602,1.229-2.602,1.229l0.804,0.805c3.501-0.095,4.542,2.98,4.542,2.98c-2.176,0.096-2.819-0.595-2.819-0.595   c0.757,0.946,0.473,2.177,0.473,2.177c-2.035-0.568-2.24-1.765-2.24-1.765l-1.704,0.095l1.037,0.674l0.048,0.503   c1.987-0.095,2.318,2.176,2.318,2.176c-2.082-0.047-2.98-1.655-2.98-1.655l-0.994,0.426c0.521,0.662,0.805,1.229,0.805,1.229   c-0.899,0.237-1.181,0.083-1.181,0.083l1.654,2c-2.555,0.236-1.59,0.028-1.59,0.028c-0.887-11.027-0.917-14.852,0.253-22.877   c1.19-8.159,4.436-16.604,4.436-16.604L49.184,96.057z"/>
	<path d="M132.924,131.271h-29.201v-1.111h29.201V131.271L132.924,131.271z M62.25,131.24l-17.883-0.035l0.002-1.111l17.883,0.035   L62.25,131.24L62.25,131.24z"/>
	<g>
		<path fill="#FDEDC2" d="M69.728,119.867c0,0,0.189-1.608,0.473-2.365c0.284-0.758,0-1.089-0.378-1.184s-0.567-0.095-0.567-0.095    s-0.521-1.277,0.757-3.406c0,0,0.946,0.379,1.798,0.142c0.852-0.236,1.325-1.419,2.271-1.419s0.805,1.277,1.656,1.372    s0.047,1.229-0.142,1.466c-0.189,0.237-0.236,0.899,0.142,1.609s-0.047,1.23-0.047,1.23l0.994-0.048c0,0,0.189-1.088,1.041-1.041    c0.851,0.048,1.088,0.994,1.041,1.704c-0.047,0.709-0.568,1.75-1.278,1.939l-0.043,2.169c-0.141,0.108-0.285,0.235-0.43,0.386    c-1.183,1.23-2.224,2.84-2.224,3.976l-1.514-1.846c0,0,2.46-1.42,3.123-3.218h-0.947c0,0-0.094,1.136-2.507,1.136    c0,0-0.189,1.041-1.325,1.088c-1.136,0.048-0.568-1.277-0.568-1.277s-0.247-0.308-0.26-0.544c-0.024-0.402,1.822-0.26,1.822-0.26    s-0.994-0.615-1.893-0.568l0.946-0.994L69.728,119.867z"/>
		<path fill="#FDEDC2" d="M90.459,197.02c0,0,5.387-9.633,9.834-14.932l0.011-0.011c0.553,3.075-0.105,4.979-0.105,4.979    l-0.382,1.514c-1.183,4.306-4.289,8.618-4.289,8.618s-1.648-0.019-2.388,0.087C92.402,197.382,90.459,197.02,90.459,197.02z"/>
		<polygon fill="#FDEDC2" points="108.691,123.693 111.161,123.676 111.033,124.486 109.128,124.565 109.025,126.061     105.523,125.934 105.499,124.599   "/>
		<path fill="#FDEDC2" d="M60.36,159.944l-0.473,3.785c0,0-1.609,0.757-3.123-0.095v-4.164c1.893-0.095,2.082-2.366,2.082-2.366    c-1.23,1.325-2.366,0.852-2.366,0.852c0.095,2.461-1.419,2.082-1.419,2.082l0.095-3.312l1.893-1.798c0,0,0.757-0.189,2.366,0.567    c0.758,0.356,1.523,0.936,2.218,1.563C61.342,159.286,60.36,159.944,60.36,159.944z"/>
	</g>
	<path fill="#ADADAD" d="M123.195,142.863c0.663-0.096,1.325,0.095,1.325,0.095l-0.047,0.757c-3.501,0.615-4.637,2.934-4.637,2.934   c0.451-2.556,2.732-3.696,2.732-3.696L123.195,142.863z M126.648,141.917l0.799,1.365c-0.412,0.51-1.002,1.442-0.939,2.562   c0.094,1.703,1.797,4.068,1.797,4.068s-2.602-0.378-3.028-3.217S126.648,141.917,126.648,141.917z M88.513,187.103l2.034-3.17   c-1.372,1.277-6.198,1.089-6.198,1.089c1.656-1.894,1.94-5.348,1.94-5.348c-3.501,3.407-9.227,3.171-9.227,3.171   c-0.047-8.328,2.268-6.649,2.221-9.961c-0.047-3.313-2.355-3.92-2.45-7.326c-0.116-4.164,2.079-6.8,2.079-6.8   c-5.158-2.224-6.866-1.7-6.866-1.7c0.521-2.697,3.785-4.211,3.785-4.211c-3.538-0.394-5.914,0.94-6.866,1.617   c1.183-1.673,4.048-4.692,9.292-4.612c4.327,0.066,6.072,1.178,5.482,3.149c0,0,1.958,0.756,4.517,5.88   c1.469,2.94,2.897,8.178,3.176,11.376c0.222,2.541,1.208,8.703,4.963,12.302c-1.026,1.018-2.292,2.473-3.757,4.545L88.513,187.103z    M92.218,159.329c-0.227-0.562-0.47-1.099-0.732-1.615c1.523-1.069,4.501-3.716,5.558-8.605   C97.043,149.108,97.453,155.689,92.218,159.329z M99.313,142.316c-0.035-1.695-0.06-3.002-0.06-3.002s3.359-1.563,3.88-5.868   C103.133,133.446,102.915,140.258,99.313,142.316z M103.426,124.95c-0.073,1.323-0.565,3.903-3.084,5.942   c-3.217,2.603-5.536,2.271-6.435,2.318v1.466c0,0,3.833,0.426,6.482-2.176c0,0-0.71,5.015-7.334,4.968   c-7.571-0.054-9.416-10.125-9.416-10.125h-0.852c0,0,1.136,2.933,1.088,6.86c-0.047,3.927-1.135,4.637-3.549,4.637l0.047,4.259   c0,0-1.035-0.188-2.642-0.105c0.173-1.151,0.412-3.33,0.229-5.762c-0.284-3.786-1.893-5.961-1.987-9.652   c-0.094-3.691,2.555-4.921,2.555-4.921v2.555L103.426,124.95z M66.369,135.435l-0.237-4.212c0,0-1.041,0.994-1.088,3.502   c-0.047,2.508,0.804,3.738,0.852,5.772c0.047,2.035-0.284,2.744-0.284,2.744l-1.42,0.615c-0.189,2.98,0.852,3.597,0.757,6.436   c-0.071,2.125-0.937,5.337-1.368,6.818c-4.228-3.917-6.344-3.317-6.344-3.317l3.596-8.044c0,0-0.757-1.229-0.473-3.785   c0.387-3.481,2.176-2.744,2.176-6.529c0-3.786,1.136-5.962,1.136-5.962l6.246-1.703l1.136,0.473l1.325-1.608   c0,0,2.46,2.366,3.785,7.003c0.983,3.442,0.298,7.612-0.12,9.533c-1.373,0.216-2.962,0.645-4.605,1.453   c-3.949-2.595-3.46-9.188-3.46-9.188H66.369z M69.618,151.342c0.105-1.09,0.68-2.896,3.139-4.126   c2.934-1.467,4.022-1.041,4.022-1.041l-2.066,2.404C73.688,148.769,71.775,149.382,69.618,151.342z M77.805,147.985l1.506-1.801   c0.391,0.078,0.855,0.199,1.399,0.38l-1.898,2.213L77.805,147.985z M85.828,143.833l-1.597-1.372l-1.317,1.535   c-0.386-0.187-0.845-0.354-1.379-0.469l1.644-1.966l-1.479-1.206l0.804-0.946l1.514,1.277l1.916-2.271l0.97,0.828l-1.94,2.248   l1.668,1.431L85.828,143.833z M88.2,153.222c0,0,0.257-2.033-1.48-3.203c0,0,6.022,0.535,8.484-4.532c0,0-0.665,6.303-5.713,9.147   C89.093,154.146,88.665,153.677,88.2,153.222z"/>
	<path fill="#FFCC00" d="M129.867,175.916l-2.557-3.327l-0.754-3.244c2.279,3.126,4.482,5.186,5.957,6.377L129.867,175.916z    M129.252,165.811l1.654-0.804c0,0-1.182-2.177-1.324-2.65c-0.141-0.473-0.473-0.614,0.236-2.839   c0.711-2.224-0.283-3.832-0.283-3.832s1.277,1.136,1.42,2.318c0.141,1.183-0.521,2.508-0.379,3.69   c0.143,1.184,1.277,2.887,1.277,2.887l1.514-0.805c0,0-0.805-0.047-1.277-2.413c-0.473-2.365,0.994-2.934,0.615-4.542   c-0.379-1.609-1.656-1.987-2.129-3.833c-0.473-1.845,0.662-3.028,0.662-3.028c-0.852-0.426-2.105-2.104-1.23-2.98   c0.615-0.615,1.373,0.142,1.373,0.142c0.047-1.136-0.615-1.986-0.615-1.986l1.117-0.528l0.822,0.906l-0.094,0.946l1.182,1.229   l-0.189,1.704l0.615,1.798l-2.271,0.047l1.799,3.597l4.873,0.378c0,0,2.178,0.474,2.225,2.744c0.053,2.509-1.184,4.354-1.184,4.354   l0.143,3.17l-1.373,2.792l0.332,4.731c-0.48,0.16-1.521,0.971-2.471,1.766c-11.167-8.338-11.393-17.475-11.393-17.475   C125.892,161.979,129.252,165.811,129.252,165.811z M117.044,156.063v1.515l1.432,0.977c-1.347,1.477-1.385,3.471-1.385,3.471   l-3.296-1.73c0.184-0.562,0.581-1.231,1.451-1.487c0,0-0.378-1.04-0.095-1.986c0,0-1.704-0.758-1.704-2.649L117.044,156.063z    M110.514,158.998l1.514-3.123l2.271,1.229l-0.947,1.703l-1.23-0.188c0,0,0.82,0.674,0.67,1.555L110.514,158.998z M105.972,166.568   l2.839,1.325l0.7-0.74l0.436,2.301l3.88,1.515l1.703-2.556c0.237-4.163,3.076-5.63,3.076-5.63c0.568-4.022,3.691-4.637,3.691-4.637   l0.425,1.655l-3.265,5.11l2.233-0.551l-7.343,10.546l-7.485-2.931l0.009-0.015l-2.792-1.608L105.972,166.568z M118.132,183.271   l-2.177-1.324c0,0-1.419,0.236-3.028-0.332c-1.608-0.567-3.69-3.549-3.69-3.549c0.568,3.218,3.028,4.259,3.028,4.259   c0.521,2.792-0.142,3.407-0.142,3.407l-4.826,0.142c-0.284-7.003,0.662-8.233,0.662-8.233l0.047-1.939l1.332-0.96l5.623,2.249   l0.993-1.146l4.78,2.412C118.227,180.432,118.132,183.271,118.132,183.271z"/>
	<path fill="#D58B14" d="M140.984,174.375c1.609-0.095,2.32,1.467,3.502,1.23c1.184-0.236,3.313-0.426,3.313-0.426   s-2.414,1.655-3.455,1.655c-1.039,0-1.039-0.615-2.744-0.71c-1.158-0.063-1.988,0.726-2.4,1.237   c-0.807-0.103-1.832-0.361-2.436-0.525C137.723,175.751,139.527,174.461,140.984,174.375z M122.343,191.267l-0.332-4.495   c0.757-2.176,2.745-2.886,2.745-2.886c-0.331-2.082,1.373-2.603,1.373-2.603c-3.833-0.142-4.211,3.028-4.211,3.028l-0.473-2.508   c0,0,0.852-3.075,4.4-2.13c3.548,0.947,4.732-0.804,4.732-0.804c-1.563,0.757-4.021,0-4.021,0c2.791-1.75,5.725-1.703,5.725-1.703   s0.662,0.378,2.271,1.041c0.529,0.218,1.24,0.359,1.955,0.45c-2.148,0.501-3.834,1.376-3.943,2.625   c-0.189,2.177-1.656,2.413-5.631,3.643C122.958,186.156,122.343,191.267,122.343,191.267z M123.999,192.308   c0.237-3.17,1.845-5.063,3.171-5.631c1.324-0.567,3.736-1.467,3.736-1.467c-0.803,0.568-0.803,2.697-0.803,2.697   c-2.697,2.13-2.887,5.016-2.887,5.016c1.766,0.026,2.473,0.477,2.752,0.863C124.872,195.664,123.999,192.308,123.999,192.308z    M137.578,189.847c-1.402,0.78-3.158,2.491-3.734,3.069c-1.537-1.199-4.877-0.845-4.877-0.845c1.988-3.265,1.893-2.225,3.502-3.927   c1.609-1.704,0.047-1.94,1.184-4.307c1.135-2.365,3.17-1.939,3.17-1.939s-0.758-0.662,0.473-1.608   c1.566-1.205,3.998-1.275,5.48-1.183c0.498,1.887,2.516,2.507,2.516,2.507c-0.852,1.562-3.691,1.42-5.441,2.887   C138.1,185.967,139.281,188.9,137.578,189.847z M147.893,187.528c-2.412,0.946-2.695,3.313-2.695,3.313   c-3.076-0.804-4.828,1.088-4.828,1.088c-0.047-3.028,2.225-3.312,2.225-3.312l-2.365,0.142c0.189-2.271,0.52-3.265,3.17-4.211   s3.266-2.224,3.266-2.224c0.898,0.379,2.129,0.331,3.549,1.562c0.564,0.489,0.998,1.036,1.32,1.521   C150.863,186.207,149.641,186.844,147.893,187.528z M166.346,183.648l-1.135-1.845c-1.75,3.69-6.057,3.596-6.057,3.596   c-1.182-3.501-3.738-3.88-3.738-3.88c1.422,2.089,1.1,3.109,0.639,3.587c-2.223-3.232-3.383-2.327-7.83-3.965   c-2.594-0.956-3.438-1.958-3.688-2.635c1.064-0.105,2.742-0.45,3.545-1.387c1.137-1.325,3.123-3.076,5.395-2.035   c2.271,1.04,3.502,0.521,4.686,0.662c1.182,0.142,1.703,1.562,2.98,2.225c1.277,0.662,2.934,0.236,2.934,0.236   c-2.367-0.521-3.266-2.65-3.266-2.65s1.799-0.188,2.98,0.379c1.184,0.567,0.662,2.035,2.793,2.129   c2.129,0.095,2.791,1.041,2.791,1.041C166.867,181.094,166.346,183.648,166.346,183.648z"/>
	<path d="M166.205,175.795c-1.609-0.284-2.65-2.177-4.447-2.271c-1.799-0.095-1.705,0.71-4.117,0.805   c-2.414,0.095-3.217-1.42-5.584-1.42c-2.365,0-2.176,0.994-5.299,1.089c-3.123,0.094-4.211-1.515-6.104-1.468l-0.189-4.163   l1.373-2.365l-0.189-3.407c0,0,1.16-2.84,1.088-4.542c-0.143-3.313-2.318-4.4-3.832-4.448c-1.516-0.047-4.449-0.236-4.449-0.236   l-0.377-0.899l1.656-0.521l-0.994-2.697l0.189-1.939l-1.277-1.041l0.236-1.229l-1.305-1.553l0.168-1.239   c-1.625-1.566-3.137-1.79-4.02-1.746c0.016-1.056,0.627-3.182,1.701-3.695c1.088-0.521,2.934,0.284,2.934,0.284   s-0.662-1.656-3.453-1.088c-3.447,0.7-3.123,4.825-3.123,4.825s-0.758-1.467-4.022-1.514c-4.21-0.062-5.678,3.453-5.678,3.453   s1.183-1.703,4.4-1.939s3.454,1.609,3.454,1.609l-1.75,0.426c0.663-0.096,1.325,0.095,1.325,0.095l-0.047,0.757   c-3.501,0.615-4.637,2.934-4.637,2.934c0.451-2.556,2.732-3.696,2.732-3.696c-4.874,2.176-3.631,6.771-3.631,6.771   c1.136-3.028,3.833-4.116,3.833-4.116s-0.426,1.041-0.047,2.649c0.379,1.608,1.845,2.792,1.845,2.792   c-0.047,2.839,0.663,4.494,0.663,4.494s-3.472,0.819-5.563,2.068l-1.392-0.695l0.094-1.515l-1.514-0.852   c0,0,0.387-0.542,1.088-1.751c0.852-1.467-1.041-2.555-1.987-1.088c-0.528,0.819-1.183,1.893-1.183,1.893l-2.366-1.23   c0,0-0.757,1.42,0,2.366l-1.325-0.663l-2.65,5.205l2.366,1.325l-2.934,5.016l-2.46-1.23l-0.662,1.562l-1.042,0.898l0.047,1.184   l-1.277,0.805l0.095,1.135l-0.473,1.23l1.845,1.23l-4.121,7.126c-1.366-1.66-4.356-5.812-5.314-11.338   c-0.405-2.339-0.837-4.375-1.359-6.183c2.38-1.949,6.501-6.428,6.299-13.974c-0.024-0.909-0.051-2.062-0.077-3.229   c1.739-0.659,5.991-3.408,5.991-14.514c0-2.508,0-2.839,0-2.839s3.407,1.515,6.057-0.663l2.555,0.049c0,0,0.284-1.326-1.703-1.752   l0.047-0.615c0,0,3.556,0.236,4.167-1.133l0.043-0.003l0.01-0.15c0.022-0.086,0.037-0.177,0.037-0.275l-0.019,0.001l0.019-0.284   l-8.611-0.095l-2.65,0.883v-0.552l-25.977,0.567v-1.411c0.129-0.016,0.244-0.033,0.332-0.056c0.567-0.142,0.662-1.041,0.047-1.277   c0,0,1.041-0.378,0.946-1.088s-0.568-0.946-0.852-0.994c0,0,1.278-0.284,1.041-1.183c-0.236-0.899-0.946-0.946-0.946-0.946   s0.757-0.521,0.757-0.993c0,0-1.277,0.142-1.846-0.758c-0.568-0.898,0.095-2.744-1.372-4.353c-1.467-1.609-4.495-1.987-6.955-0.757   c-2.46,1.229-1.514,2.508-1.514,2.508s-1.136,2.365-0.899,3.832c0.083,0.514,0.521,1.088,0.521,1.088s-0.426,0.758-0.426,1.467   c0,0.71,0.852,1.94,0.852,1.94s-0.378,0.567-0.378,0.946s0.331,1.041,0.331,1.041v1.798c0,0,0.899,0.71,1.514,0.71l-0.047,0.615   l-7.902,1.987c-0.757,1.23-1.23,3.217-1.514,5.962c-0.284,2.744-1.703,4.637-3.785,7.949c-2.082,3.312-0.568,4.826-0.568,4.826   l-3.785,8.232l1.703,1.136l-0.852,1.041l0.095,4.353c0.852,0.379,1.514,0.379,1.514,0.379v3.218   c2.176,1.372,5.394,0.283,5.394,0.283l0.704-3.833l1.623,1.172c0,0-0.159,1.11-0.317,3.967c-0.115,2.066,0.794,3.65,1.27,7.301   c0.395,3.026-0.321,4.811-0.321,4.811s0.977,1.769,3.295,3.992c2.318,2.225,5.26,4.753,5.26,4.753l16.262-0.018l2.034-3.171   c-1.372,1.277-6.198,1.089-6.198,1.089c1.656-1.893,1.94-5.348,1.94-5.348c-3.501,3.407-9.227,3.171-9.227,3.171   c-0.047-8.328,2.268-6.648,2.221-9.961c-0.047-3.313-2.355-3.92-2.45-7.326c-0.116-4.164,2.079-6.8,2.079-6.8   c-5.158-2.224-6.866-1.7-6.866-1.7c0.521-2.697,3.785-4.211,3.785-4.211c-3.538-0.394-5.914,0.94-6.866,1.617   c1.183-1.673,4.048-4.692,9.292-4.612c4.327,0.067,6.072,1.178,5.482,3.149c0,0,1.958,0.756,4.517,5.88   c1.469,2.94,2.897,8.178,3.176,11.376c0.222,2.542,1.208,8.703,4.963,12.302c-2.187,2.167-5.458,6.324-9.444,14.195   c0,0,7.288,4.183,11.76,4.449c3.967,0.236,4.988-1.135,6.408-1.135s2.934,1.418,4.731,1.418c1.798,0,2.461-1.418,4.07-1.418   c1.608,0,3.312,0.852,3.312,0.852l1.136-0.946c0,0-2.366-1.515-4.542-1.326c-2.176,0.189-2.555,1.042-4.164,1.089   c-1.562,0.046-2.839-1.372-4.826-1.372s-2.365,1.007-5.489,0.946c-4.833-0.094-8.888-2.291-8.888-2.291s5.387-9.633,9.834-14.932   l0.011-0.011c0.553,3.075-0.105,4.979-0.105,4.979h19.494l-1.608,1.514H99.817c-1.183,4.306-4.289,8.618-4.289,8.618   s1.642,0.655,3.393,0.655c2.603,0,2.46-1.041,5.394-0.994c2.934,0.048,2.745,1.366,5.394,1.42c2.366,0.047,3.076-1.609,6.104-1.609   c3.028,0,3.407,1.751,6.625,1.799c3.217,0.047,2.224-1.609,5.205-1.515c2.98,0.095,3.313,1.278,5.299,1.325   c2.082,0.05,3.645-1.467,5.252-1.372c1.609,0.095,1.799,0.993,4.307,0.993s3.359-1.419,5.488-1.372   c2.129,0.048,2.98,0.615,5.488,0.567c2.508-0.047,4.117-1.135,5.252-1.183c1.135-0.047,1.135,0.143,1.135,0.143l1.656-1.136   c0,0-1.324-0.473-2.885-0.426c-1.467,0.044-2.225,1.23-5.016,1.324c-2.793,0.095-3.076-0.757-5.631-0.804   c-2.555-0.048-4.07,1.372-5.441,1.42c-1.371,0.047-2.604-0.805-4.307-0.853c-1.703-0.047-4.352,1.041-4.352,1.041l-0.379-1.136   c0,0,2.555-1.136,4.73-1.136c2.178,0,2.318,0.71,4.213,0.663c1.891-0.048,3.074-1.467,5.439-1.467c2.367,0,3.123,0.852,5.82,0.804   l7.191-6.86l2.697,0.047l2.035-2.46l1.467,0.331c0.994-3.548,4.779-5.678,4.779-5.678   C171.6,176.41,167.813,176.078,166.205,175.795z M108.691,123.693l2.469-0.018l-0.128,0.811l-1.905,0.079l-0.103,1.495   l-3.502-0.127l-0.024-1.335L108.691,123.693z M92.218,159.329c-0.227-0.562-0.47-1.099-0.732-1.615   c1.523-1.069,4.501-3.716,5.558-8.605C97.043,149.108,97.453,155.689,92.218,159.329z M99.313,142.316   c-0.035-1.695-0.06-3.002-0.06-3.002s3.359-1.563,3.88-5.868C103.133,133.446,102.915,140.258,99.313,142.316z M103.426,124.95   c-0.073,1.323-0.565,3.903-3.084,5.942c-3.217,2.603-5.536,2.271-6.435,2.318v1.466c0,0,3.833,0.426,6.482-2.176   c0,0-0.71,5.015-7.334,4.968c-7.571-0.054-9.416-10.125-9.416-10.125h-0.852c0,0,1.136,2.933,1.088,6.86   c-0.047,3.927-1.135,4.637-3.549,4.637l0.047,4.259c0,0-1.035-0.188-2.642-0.105c0.173-1.151,0.412-3.33,0.229-5.762   c-0.284-3.786-1.893-5.961-1.987-9.652c-0.094-3.691,2.555-4.921,2.555-4.921v2.555L103.426,124.95z M69.728,119.867   c0,0,0.189-1.608,0.473-2.365c0.284-0.758,0-1.089-0.378-1.184s-0.567-0.095-0.567-0.095s-0.521-1.277,0.757-3.406   c0,0,0.946,0.379,1.798,0.142c0.852-0.236,1.325-1.419,2.271-1.419s0.805,1.277,1.656,1.372s0.047,1.229-0.142,1.466   c-0.189,0.237-0.236,0.899,0.142,1.609s-0.047,1.23-0.047,1.23l0.994-0.048c0,0,0.189-1.088,1.041-1.041   c0.851,0.048,1.088,0.994,1.041,1.704c-0.047,0.709-0.568,1.75-1.278,1.939l-0.043,2.169c-0.141,0.108-0.285,0.235-0.43,0.386   c-1.183,1.23-2.224,2.84-2.224,3.976l-1.514-1.846c0,0,2.46-1.42,3.123-3.218h-0.947c0,0-0.094,1.136-2.507,1.136   c0,0-0.189,1.041-1.325,1.088c-1.136,0.048-0.568-1.277-0.568-1.277s-0.247-0.308-0.26-0.544c-0.024-0.402,1.822-0.26,1.822-0.26   s-0.994-0.615-1.893-0.568l0.946-0.994L69.728,119.867z M60.36,159.944l-0.473,3.785c0,0-1.609,0.757-3.123-0.095v-4.164   c1.893-0.095,2.082-2.366,2.082-2.366c-1.23,1.325-2.366,0.852-2.366,0.852c0.095,2.461-1.419,2.082-1.419,2.082l0.095-3.312   l1.893-1.798c0,0,0.757-0.189,2.366,0.567c0.758,0.356,1.523,0.936,2.218,1.563C61.342,159.286,60.36,159.944,60.36,159.944z    M66.369,135.435l-0.237-4.212c0,0-1.041,0.994-1.088,3.502c-0.047,2.508,0.804,3.738,0.852,5.772   c0.047,2.035-0.284,2.744-0.284,2.744l-1.42,0.615c-0.189,2.98,0.852,3.597,0.757,6.436c-0.071,2.125-0.937,5.337-1.368,6.818   c-4.228-3.917-6.344-3.317-6.344-3.317l3.596-8.044c0,0-0.757-1.229-0.473-3.785c0.387-3.481,2.176-2.744,2.176-6.529   c0-3.786,1.136-5.962,1.136-5.962l6.246-1.703l1.136,0.473l1.325-1.608c0,0,2.46,2.366,3.785,7.003   c0.983,3.442,0.298,7.612-0.12,9.533c-1.373,0.216-2.962,0.645-4.605,1.453c-3.949-2.595-3.46-9.188-3.46-9.188H66.369z    M69.618,151.342c0.105-1.09,0.68-2.896,3.139-4.126c2.934-1.467,4.022-1.041,4.022-1.041l-2.066,2.404   C73.688,148.769,71.775,149.382,69.618,151.342z M77.805,147.985l1.506-1.801c0.391,0.078,0.855,0.199,1.399,0.38l-1.898,2.213   L77.805,147.985z M85.828,143.833l-1.597-1.372l-1.317,1.535c-0.386-0.187-0.845-0.354-1.379-0.469l1.644-1.966l-1.479-1.206   l0.804-0.946l1.514,1.277l1.916-2.271l0.97,0.828l-1.94,2.248l1.668,1.431L85.828,143.833z M88.2,153.222   c0,0,0.257-2.033-1.48-3.203c0,0,6.022,0.535,8.484-4.532c0,0-0.665,6.303-5.713,9.147C89.093,154.146,88.665,153.677,88.2,153.222   z M140.984,174.375c1.609-0.095,2.32,1.467,3.502,1.23c1.184-0.236,3.313-0.426,3.313-0.426s-2.414,1.655-3.455,1.655   c-1.039,0-1.039-0.615-2.744-0.71c-1.158-0.063-1.988,0.726-2.4,1.237c-0.807-0.103-1.832-0.361-2.436-0.525   C137.723,175.751,139.527,174.461,140.984,174.375z M129.867,175.916l-2.557-3.327l-0.754-3.244   c2.279,3.126,4.482,5.186,5.957,6.377L129.867,175.916z M126.648,141.917l0.799,1.365c-0.412,0.51-1.002,1.442-0.939,2.562   c0.094,1.703,1.797,4.068,1.797,4.068s-2.602-0.378-3.028-3.217S126.648,141.917,126.648,141.917z M129.252,165.811l1.654-0.804   c0,0-1.182-2.177-1.324-2.65c-0.143-0.473-0.473-0.614,0.236-2.839c0.711-2.224-0.283-3.832-0.283-3.832s1.277,1.136,1.42,2.318   c0.141,1.183-0.521,2.508-0.379,3.69c0.143,1.184,1.277,2.887,1.277,2.887l1.514-0.805c0,0-0.805-0.047-1.277-2.413   c-0.473-2.365,0.994-2.934,0.615-4.542c-0.379-1.609-1.656-1.987-2.129-3.833c-0.473-1.845,0.662-3.028,0.662-3.028   c-0.852-0.426-2.105-2.104-1.23-2.98c0.615-0.615,1.373,0.142,1.373,0.142c0.047-1.136-0.615-1.986-0.615-1.986l1.115-0.528   l0.824,0.906l-0.094,0.946l1.182,1.229l-0.189,1.704l0.615,1.798l-2.271,0.047l1.799,3.597l4.873,0.378   c0,0,2.178,0.474,2.225,2.744c0.053,2.509-1.184,4.354-1.184,4.354l0.143,3.17l-1.373,2.792l0.332,4.731   c-0.48,0.16-1.521,0.971-2.471,1.766c-11.167-8.338-11.393-17.475-11.393-17.475C125.892,161.979,129.252,165.811,129.252,165.811z    M117.044,156.063v1.515l1.432,0.977c-1.347,1.477-1.385,3.471-1.385,3.471l-3.296-1.73c0.184-0.562,0.582-1.231,1.451-1.487   c0,0-0.379-1.04-0.095-1.986c0,0-1.704-0.758-1.704-2.649L117.044,156.063z M110.514,158.998l1.514-3.123l2.271,1.229l-0.947,1.703   l-1.23-0.188c0,0,0.82,0.674,0.67,1.555L110.514,158.998z M112.854,161.528l3.291,1.728c-2.082,1.893-2.082,5.394-2.082,5.394   l-2.934,0.095l-0.189-1.987l-0.887-0.431L112.854,161.528z M105.972,166.568l2.839,1.325l0.7-0.74l0.435,2.301l3.88,1.515   l1.704-2.556c0.237-4.163,3.075-5.63,3.075-5.63c0.568-4.022,3.691-4.637,3.691-4.637l0.426,1.655l-3.265,5.11l2.233-0.551   l-7.344,10.546l-7.484-2.931l0.009-0.015l-2.792-1.608L105.972,166.568z M105.073,183.886l-2.244,0.142   c-0.024-0.628-0.927-2.231-1.375-2.991l0.354-0.32l4.222-7.3l1.517,0.607l-1.574,1.109l0.142,1.987   C104.931,179.296,105.073,183.886,105.073,183.886z M118.132,183.271l-2.177-1.324c0,0-1.419,0.236-3.028-0.332   c-1.608-0.567-3.69-3.549-3.69-3.549c0.567,3.218,3.028,4.259,3.028,4.259c0.521,2.792-0.142,3.407-0.142,3.407l-4.826,0.142   c-0.284-7.003,0.663-8.233,0.663-8.233l0.047-1.939l1.332-0.96l5.624,2.249l0.993-1.146l4.78,2.412   C118.227,180.432,118.132,183.271,118.132,183.271z M117.665,173.868l4.631-5.349l0.994,2.225l0.852,0.852l1.441,3.525   l-1.299-0.604l-0.899,0.663l-1.798-0.805l-0.804,0.852L117.665,173.868z M122.343,191.267l-0.332-4.495   c0.757-2.176,2.745-2.886,2.745-2.886c-0.331-2.082,1.373-2.603,1.373-2.603c-3.833-0.142-4.211,3.028-4.211,3.028l-0.473-2.508   c0,0,0.852-3.075,4.4-2.13c3.548,0.947,4.732-0.804,4.732-0.804c-1.563,0.757-4.021,0-4.021,0c2.791-1.75,5.725-1.703,5.725-1.703   s0.662,0.378,2.271,1.041c0.529,0.218,1.24,0.359,1.955,0.45c-2.148,0.501-3.834,1.376-3.943,2.625   c-0.189,2.177-1.656,2.413-5.631,3.643C122.958,186.156,122.343,191.267,122.343,191.267z M123.999,192.308   c0.237-3.17,1.845-5.063,3.171-5.631c1.324-0.567,3.736-1.467,3.736-1.467c-0.803,0.568-0.803,2.697-0.803,2.697   c-2.697,2.13-2.887,5.016-2.887,5.016c1.766,0.026,2.473,0.477,2.754,0.863C124.872,195.664,123.999,192.308,123.999,192.308z    M137.578,189.847c-1.402,0.78-3.158,2.491-3.734,3.069c-1.537-1.199-4.877-0.845-4.877-0.845c1.988-3.265,1.893-2.225,3.502-3.927   c1.609-1.704,0.047-1.94,1.184-4.307c1.135-2.365,3.17-1.939,3.17-1.939s-0.758-0.662,0.473-1.608   c1.566-1.205,3.998-1.275,5.48-1.183c0.498,1.887,2.516,2.507,2.516,2.507c-0.852,1.562-3.691,1.42-5.441,2.887   C138.1,185.967,139.281,188.9,137.578,189.847z M147.893,187.528c-2.412,0.946-2.695,3.313-2.695,3.313   c-3.076-0.804-4.828,1.088-4.828,1.088c-0.047-3.028,2.225-3.312,2.225-3.312l-2.365,0.142c0.189-2.271,0.52-3.265,3.17-4.211   s3.266-2.224,3.266-2.224c0.898,0.379,2.129,0.331,3.549,1.562c0.563,0.489,0.998,1.036,1.32,1.521   C150.863,186.207,149.641,186.844,147.893,187.528z M166.346,183.648l-1.135-1.845c-1.75,3.69-6.057,3.596-6.057,3.596   c-1.184-3.501-3.738-3.88-3.738-3.88c1.422,2.089,1.1,3.109,0.639,3.587c-2.223-3.232-3.383-2.327-7.83-3.965   c-2.594-0.956-3.438-1.958-3.688-2.635c1.064-0.105,2.742-0.45,3.545-1.387c1.137-1.325,3.123-3.076,5.395-2.035   c2.271,1.04,3.502,0.521,4.686,0.662c1.182,0.142,1.701,1.562,2.98,2.225c1.275,0.662,2.934,0.236,2.934,0.236   c-2.367-0.521-3.266-2.65-3.266-2.65s1.799-0.188,2.98,0.379c1.184,0.567,0.662,2.035,2.793,2.129   c2.129,0.095,2.791,1.041,2.791,1.041C166.867,181.094,166.346,183.648,166.346,183.648z M90.513,188.57l-4.764,7.677   c0,0-3.218-1.755-6.274-3.739c-2.137-1.388-5.513-3.938-5.513-3.938H90.513z M163.461,181.094c0,0-0.664,1.751-2.744,1.799   c0,0,0.141-1.325-1.184-2.366s-2.373-1.11-3.738-1.656c-1.42-0.567-1.799-1.75-1.799-1.75s1.656,0.52,2.934,0.662   c1.279,0.142,1.799,1.467,2.51,1.75C160.148,179.816,162.609,179.296,163.461,181.094z M71.739,117.17   c-0.024-0.354-0.486-0.186-0.473-0.544c0.023-0.639,1.585-1.111,2.697-0.567c0,0-1.278,0.07-1.278,0.378   c0,0.236,0.521-0.095,1.87,0.639l-1.822,0.048c0,0,0,0.639,0.354,0.852l-0.899,0.023C72.188,117.998,71.763,117.525,71.739,117.17z   "/>
	<g>
		<path fill="#51504D" d="M118.345,88.933h0.84c-0.067,0.494-0.069,0.994-0.006,1.492c0.048,0.377,0.192,0.813,0.374,1.365    c0.396,1.2,0.938,2.843,0.885,5.06c-0.059,2.474-0.796,3.601-1.456,3.601c-0.796,0-1.744-0.932-1.792-3.559    c-0.03-1.659,0.397-2.645,0.811-3.598c0.349-0.804,0.709-1.635,0.709-2.747C118.71,89.908,118.544,89.36,118.345,88.933z"/>
		<path d="M123.891,110.146c0.325-0.369,0.513-0.784,0.513-1.225c0-1.523-2.184-2.758-4.878-2.758s-4.878,1.234-4.878,2.758    c0,0.439,0.187,0.854,0.512,1.224c-0.007,0.509-0.219,1.344-1.219,2.387l-1.395,1.396l1.801,1.376l0.147-0.236    c0.017-0.027,1.723-2.703,4.971-2.703h0.063h0.059c3.248,0,4.954,2.676,4.971,2.703l0.148,0.236l1.801-1.376l-1.392-1.392    C124.112,111.488,123.899,110.654,123.891,110.146z"/>
		<path d="M146.65,93.789c-1.193-3.507-0.822-6.919-0.521-8.133c0.154-0.623,0.793-2.693,0.793-2.693s-1.658,0.79-2.285,1.425    c-2.336,2.366-2.984,4.999-2.688,6.79c0.299,1.79,2.24,4.999,2.314,6.938c0.074,1.94-1.643,1.716-1.643,1.716    c-0.074-2.388-0.672-5.446-2.611-8.281s-2.686-5.148-2.76-5.819c-0.074-0.672,0.299-3.73-0.521-5.521c0,0-1.717-3.433-1.27-4.253    c1.582-2.901,1.344-4.402,1.418-5.596c0.057-0.921,0.074-3.151,0.074-3.151c-0.672,1.045-1.791,1.51-1.791,1.51    c0.15-0.522-0.148-2.106-0.148-2.106c-0.225,0.299-1.566,1.659-1.566,1.659c-0.523-0.224-2.463-0.522-2.463-0.522l-1.344,0.299    c0,0-1.715-0.598-2.461-1.045c-0.746-0.448-1.119,0-1.492,0.373s0,0.97,0,0.97c0.82,0.821,2.984,3.73,2.984,3.73    c0.447,5.521-0.971,7.461-0.971,7.461c-2.76-1.343-3.506-3.954-3.805-4.401c-0.298-0.448-1.492-1.269-1.791-1.642    c-0.298-0.373-0.746-2.015-1.119-2.537c-0.341-0.477-1.487-1.139-1.684-1.25v-0.062c0,0-1.343,0.747-1.716,1.269    c-0.373,0.522-0.82,2.164-1.119,2.537c-0.298,0.373-1.492,1.193-1.791,1.642c-0.298,0.447-1.044,3.059-3.805,4.402    c0,0-1.417-1.94-0.97-7.462c0,0,2.164-2.91,2.985-3.73c0,0,0.373-0.597,0-0.97c-0.373-0.373-0.747-0.821-1.493-0.373    c-0.746,0.447-2.462,1.045-2.462,1.045l-1.343-0.299c0,0-1.939,0.299-2.462,0.522c0,0-1.343-1.36-1.566-1.659    c0,0-0.299,1.584-0.149,2.106c0,0-1.119-0.465-1.791-1.51c0,0,0.017,2.23,0.075,3.151c0.075,1.193-0.165,2.694,1.417,5.596    c0.448,0.821-1.268,4.253-1.268,4.253c-0.821,1.791-0.448,4.85-0.522,5.521c-0.075,0.671-0.821,2.984-2.761,5.819    c-1.939,2.835-2.537,5.895-2.611,8.281c0,0-1.716,0.225-1.642-1.716c0.075-1.939,2.015-5.147,2.313-6.938s-0.351-4.424-2.686-6.79    c-0.627-0.635-2.285-1.425-2.285-1.425s0.638,2.07,0.793,2.693c0.301,1.214,0.671,4.626-0.522,8.133s-0.298,7.237,1.194,8.207    s2.984,0,2.984,0s0.298,2.089,1.567,3.73c0.652,0.844,1.378,1.499,1.812,2.418l4.187,2.776c0.648-1.005,1.293-1.91,1.686-2.434    c0.669-0.891,0.749-1.206-0.447-3.656c-0.659-1.35-1.567-3.581,0.074-3.655c1.642-0.075,4.335,0.359,5.223,1.268    c0.714,0.732,2.373,4.364,2.373,4.364l3.457-4.414c0.886,0.982,2.02,1.574,3.254,1.574c1.227,0,2.354-0.585,3.239-1.558    l3.477,4.439c0,0,1.658-3.632,2.373-4.363c0.889-0.908,3.582-1.343,5.223-1.268c1.641,0.074,0.734,2.306,0.074,3.655    c-1.195,2.45-1.117,2.766-0.447,3.656c0.826,1.1,2.762,3.88,3.508,5.745c0.744,1.865-0.746,3.357-1.418,4.327    s-2.389,1.269-3.061,1.567c-0.672,0.298-0.371,1.566,0,1.716c0.373,0.149,1.941,0.671,2.688-0.373    c0.746-1.045,4.387-4.042,5.506-5.46c0,0-1.18-2.966-1.477-4.165c-0.879-3.551,0.67-4.477,1.939-6.118    c1.268-1.642,1.566-3.73,1.566-3.73s1.492,0.97,2.984,0S147.844,97.296,146.65,93.789z M113.854,81.958    c0.97-0.225,1.194-1.567,1.269-2.537c0.074-0.97,0.224-3.432,2.611-4.402l1.535-0.438v0.034l1.567,0.447    c2.387,0.97,2.537,3.432,2.611,4.402c0.074,0.97,0.298,2.313,1.268,2.537c0.829,0.19,2.314,1.417,2.314,1.417    c-1.493,3.507-0.299,5.298-0.299,5.298c-1.601,1.451-3.052,2.159-4.105,2.506c-0.173-0.635-0.243-1.376,0.116-1.846    c0.332-0.434,0.552-0.646,0.679-0.748l0.712,0.534v-2.611l-3.07,0.004l-6.629-0.004v2.612l0.712-0.535    c0.127,0.103,0.347,0.315,0.679,0.748c0.351,0.46,0.292,1.18,0.126,1.805c-1.053-0.346-2.507-1.054-4.11-2.508    c0,0,1.193-1.791-0.299-5.298C111.542,83.375,113.025,82.149,113.854,81.958z M113.333,101.356    c-1.492-0.447-1.567-2.611-1.94-4.179c-0.373-1.566-0.558-1.625-4.402-1.865c0,0,1.94-1.417,2.984-3.581    c0,0,2.277,1.207,4.96,1.57c-0.511,1.096-0.786,2.367-0.786,3.695c0,1.509,0.36,2.904,0.969,4.044    C114.589,101.34,113.955,101.543,113.333,101.356z M120.438,96.85c-0.059,2.474-0.796,3.601-1.456,3.601    c-0.796,0-1.744-0.932-1.792-3.559c-0.03-1.659,0.397-2.645,0.811-3.598c0.349-0.804,0.709-1.635,0.709-2.747    c0-0.639-0.166-1.187-0.365-1.614h0.84c-0.067,0.494-0.069,0.994-0.006,1.492c0.048,0.377,0.192,0.813,0.374,1.365    C119.948,92.99,120.49,94.633,120.438,96.85z M127.178,97.221c-0.373,1.567-0.447,3.73-1.94,4.179    c-0.63,0.189-1.273-0.021-1.807-0.328c0.619-1.145,0.986-2.553,0.986-4.074c0-1.312-0.27-2.568-0.769-3.654    c2.678-0.365,4.946-1.568,4.946-1.568c1.045,2.164,2.984,3.581,2.984,3.581C127.736,95.596,127.551,95.654,127.178,97.221z"/>
		<polygon fill="#51504D" points="119.879,82.329 118.686,82.329 118.686,60.933 119.879,60.933 119.879,82.329   "/>
		<path d="M116.746,87.689l-1.193-0.037l0.073-2.388c0-1.939,1.64-3.533,3.657-3.533c2.016,0,3.657,1.594,3.657,3.552l-0.001,2.313    h-1.194l0.001-2.313c0-1.3-1.105-2.357-2.463-2.357c-1.358,0-2.463,1.058-2.463,2.357L116.746,87.689L116.746,87.689z"/>
	</g>
	<path fill="#FFCC00" d="M209.176,125.199c0-11.418-2.238-22.494-6.648-32.923c-4.26-10.071-10.357-19.116-18.125-26.884   s-16.813-13.866-26.885-18.126c-10.428-4.411-21.506-6.647-32.922-6.647c-27.877,0-53.838,13.594-69.656,36.415l-0.017-0.011   l-0.559,0.849l-0.57,0.844l0.018,0.012c-8.608,13.444-13.156,29.197-13.156,45.633c0,11.418,2.237,22.495,6.647,32.923   c4.26,10.072,10.358,19.117,18.126,26.885c7.767,7.768,16.813,13.865,26.884,18.126c10.428,4.41,21.505,6.646,32.922,6.646   c27.877,0,53.838-13.594,69.657-36.414l0.016,0.011l0.555-0.844c0.002-0.002,0.004-0.003,0.004-0.005l0.57-0.844l-0.018-0.013   C204.627,157.389,209.176,141.635,209.176,125.199z M56.655,78.117c15.443-22.23,40.759-35.47,67.94-35.47   c45.52,0,82.551,37.032,82.551,82.552c0,16.032-4.426,31.397-12.811,44.506l-14.506-9.713c6.695-10.396,10.09-22.11,10.09-34.833   c0-17.446-6.795-33.848-19.131-46.185c-6.379-6.379-13.846-11.277-21.982-14.519v74.983L56.655,78.117z M125.236,206.913   c-45.52,0-82.552-37.033-82.552-82.553c0-16.032,4.426-31.396,12.811-44.506l137.681,91.589   C177.732,193.673,152.418,206.913,125.236,206.913z"/>
	<g>
		<path fill="#EF3843" d="M184.051,152.34c1.238-2.662,2.281-5.396,3.129-8.199l-1.189-0.789c0.002-0.002,0.002-0.005,0.002-0.008    l-2.148-1.427c0,0,0,0,0-0.001l-35.037-23.257v10.248l5.936,3.945v0.004L184.051,152.34z"/>
		<path fill="#EF3843" d="M154.742,79.344l-4.922-3.276v0.003l-1.014-0.675v10.245l5.936,3.943v0.006l33.877,22.51    c-0.896-4.445-2.254-8.762-4.043-12.895L154.742,79.344L154.742,79.344z"/>
		<path fill="#EF3843" d="M189.91,124.33l-1.012-0.669c0-0.006,0-0.013,0-0.02l-2.148-1.422c0-0.002,0-0.004,0-0.006l-37.943-25.11    v10.169l1.014,0.672v0.003l4.922,3.263v0.014l34.588,22.931c0.391-2.938,0.59-5.937,0.59-8.995    C189.92,124.883,189.914,124.606,189.91,124.33z"/>
	</g>
	<path fill="#003366" d="M124.595,42.647c45.52,0,82.551,37.032,82.551,82.552c0,16.032-4.426,31.397-12.811,44.506l-14.506-9.713   c6.695-10.396,10.09-22.11,10.09-34.833c0-17.446-6.795-33.848-19.131-46.185c-12.336-12.336-28.738-19.13-46.184-19.13   c-21.355,0-41.277,10.397-53.521,27.869l-14.43-9.597C72.098,55.887,97.414,42.647,124.595,42.647z"/>
	<g>
		<path fill="#FFCC00" d="M194.98,127.224c-0.279-0.282-0.516-1.164-0.482-1.694c-1.42,1.139-3.307,2.6-3.375,3.903    c-0.041,0.804,0.389,2.029,0.713,2.768l0.426-0.177c-0.131-0.328-0.25-0.605-0.236-0.96    C192.068,129.984,193.279,128.764,194.98,127.224"/>
		<path fill="#FFCC00" d="M198.348,120.638c3.203,0.125,5.596,2.426,5.467,5.723c-0.123,3.136-2.232,5.099-5.354,4.976    c-3.203-0.125-5.594-2.426-5.465-5.723C193.119,122.478,195.227,120.516,198.348,120.638 M197.666,129.437    c4.15,0.163,5.529-2.086,5.586-3.565c0.02-0.499,0.012-3.173-4.107-3.334c-4.152-0.163-5.529,2.086-5.588,3.566    C193.537,126.602,193.545,129.275,197.666,129.437z"/>
		<path fill="#FFCC00" d="M75.193,73.779l-2.479-2.299c-0.643-0.597-1.484-1.377-2.123-1.814c-0.417-0.277-0.518-0.216-0.816,0.105    l-0.441,0.476l-0.386-0.357l2.062-2.224l0.386,0.357l-0.309,0.333c-0.287,0.31-0.342,0.369-0.19,0.51l6.862,6.365    c0.082,0.076,0.107,0.166,0.03,0.249c-0.088,0.095-0.248,0.08-0.635,0.075l-10.741-0.188l3.238,3.004    c0.643,0.596,1.484,1.377,2.123,1.814c0.417,0.276,0.518,0.215,0.816-0.106l0.441-0.476l0.386,0.358l-2.062,2.223l-0.386-0.357    l0.309-0.333c0.287-0.309,0.342-0.368,0.19-0.51l-5.319-4.934c-0.655-0.607-1.423-0.834-1.853-0.37l-0.32,0.345l-0.386-0.357    l1.907-2.058L75.193,73.779"/>
		<path fill="#FFCC00" d="M79.066,61.566l-0.601,0.415c-0.173,0.12-0.146,0.217-0.055,0.349l3.044,4.408    c0.716,1.037,2.101,2.871,4.276,1.368c0.601-0.414,2.472-1.9,0.651-4.538l-1.414-2.046c-0.499-0.723-1.15-1.667-1.679-2.232    c-0.347-0.36-0.459-0.322-0.819-0.073l-0.534,0.368l-0.299-0.433l2.496-1.724l0.299,0.433l-0.374,0.259    c-0.347,0.239-0.414,0.285-0.296,0.456l3.208,4.645c1.667,2.414,0.513,4.568-1.183,5.738c-2.723,1.881-4.439,0.935-5.427-0.495    l-2.41-3.49c-1.195-1.732-1.312-1.729-1.739-1.435l-0.601,0.415l-0.299-0.434l3.457-2.387L79.066,61.566"/>
		<path fill="#FFCC00" d="M98.365,59.014l0.32-7.893l2.569-1l0.191,0.49l-0.68,0.265c-0.196,0.077-0.192,0.178-0.134,0.326    l2.413,6.195c0.764,1.961,0.877,1.984,1.361,1.797l0.68-0.266l0.191,0.491l-3.914,1.523l-0.191-0.49l0.68-0.265    c0.196-0.076,0.192-0.178,0.134-0.326l-2.742-7.042l-0.031,0.012l-0.371,8.699c-0.001,0.086,0.023,0.282-0.083,0.323    c-0.105,0.041-0.221-0.119-0.279-0.182l-6.098-5.872l-0.03,0.012l1.527,3.922c0.318,0.817,0.735,1.887,1.119,2.559    c0.255,0.431,0.372,0.42,0.78,0.261l0.605-0.235l0.19,0.49l-2.825,1.1l-0.191-0.489l0.423-0.165    c0.393-0.153,0.468-0.183,0.393-0.376l-2.441-6.269c-0.503-1.293-0.851-1.962-1.697-1.632l-0.408,0.158l-0.191-0.49l2.886-1.123    L98.365,59.014"/>
		<path fill="#FFCC00" d="M110.091,57.699l0.721-0.111c0.208-0.031,0.226-0.131,0.202-0.289l-1.009-6.571    c-0.319-2.081-0.425-2.129-0.938-2.05l-0.721,0.11l-0.08-0.52l7.854-1.207c0.054,1.524,0.054,1.637-0.106,1.661    c-0.208,0.032-0.26-0.089-0.31-0.307c-0.057-0.266-0.965-0.514-2.792-0.232l-1.154,0.178c-0.16,0.024-0.201,0.078-0.177,0.236    l0.53,3.451l1.491-0.229c1.699-0.262,1.734-0.461,1.664-0.917l-0.085-0.552l0.481-0.074l0.426,2.773l-0.481,0.074l-0.087-0.567    c-0.041-0.268-0.132-0.432-1.831-0.17l-1.491,0.229l0.176,1.15c0.516,3.357,0.587,3.395,1.132,3.311l0.561-0.086    c0.866-0.133,3.046-0.468,3.41-1.411c0.047-0.12,0.064-0.22,0.208-0.242c0.113-0.017,0.188,0.052,0.206,0.162    c0.022,0.142-0.022,0.391-0.187,1.562l-7.534,1.157L110.091,57.699"/>
		<path fill="#FFCC00" d="M132.084,54.369l0.172-3.377c0.043-0.876,0.102-2.022,0.027-2.792c-0.055-0.498-0.168-0.536-0.604-0.559    l-0.648-0.032l0.025-0.525l3.029,0.153l-0.027,0.525l-0.453-0.022c-0.42-0.021-0.502-0.026-0.512,0.182l-0.477,9.349    c-0.006,0.111-0.059,0.188-0.172,0.183c-0.129-0.007-0.221-0.139-0.465-0.439l-6.75-8.357l-0.225,4.412    c-0.045,0.876-0.103,2.022-0.029,2.792c0.056,0.498,0.168,0.536,0.605,0.558l0.647,0.033l-0.027,0.525l-3.027-0.153l0.026-0.525    l0.454,0.022c0.421,0.021,0.501,0.025,0.513-0.181l0.369-7.247c0.046-0.892-0.274-1.626-0.906-1.658l-0.47-0.024l0.027-0.525    l2.801,0.143L132.084,54.369"/>
		<path fill="#FFCC00" d="M142.074,59.011l0.164-0.5l0.693,0.227c0.201,0.064,0.26-0.016,0.311-0.168l2.063-6.321    c0.652-2.001,0.58-2.092,0.086-2.252l-0.693-0.227l0.164-0.5l7.553,2.464c-0.639,1.385-0.689,1.485-0.842,1.436    c-0.201-0.065-0.191-0.197-0.139-0.414c0.068-0.263-0.629-0.894-2.387-1.466l-1.111-0.362c-0.154-0.051-0.215-0.021-0.264,0.131    l-1.084,3.32l1.434,0.468c1.635,0.533,1.756,0.371,1.898-0.068l0.174-0.531l0.463,0.151l-0.871,2.668l-0.463-0.151l0.18-0.545    c0.084-0.258,0.076-0.444-1.559-0.978l-1.434-0.468l-0.787,2.41c-0.652,2.001-0.58,2.092-0.086,2.253l0.693,0.226l-0.164,0.501    L142.074,59.011"/>
		<path fill="#FFCC00" d="M158.658,61.347c-1.631,2.978-1.598,3.051-1.115,3.316l0.498,0.272c0.768,0.421,2.703,1.48,3.564,0.953    c0.111-0.066,0.186-0.135,0.313-0.064c0.1,0.055,0.119,0.155,0.064,0.254c-0.068,0.125-0.254,0.296-1.098,1.125l-6.684-3.663    l0.254-0.461l0.639,0.351c0.186,0.101,0.26,0.032,0.336-0.107l3.195-5.83c1.012-1.846,0.957-1.948,0.502-2.197l-0.641-0.351    l0.254-0.462l3.67,2.011l-0.254,0.462l-0.641-0.352c-0.184-0.101-0.258-0.032-0.32,0.115L158.658,61.347"/>
		<path fill="#FFCC00" d="M174.283,64.811l-0.557-0.472c-0.162-0.136-0.248-0.084-0.352,0.038l-3.461,4.089    c-0.814,0.961-2.223,2.776-0.207,4.483c0.559,0.472,2.48,1.891,4.551-0.556l1.607-1.898c0.566-0.669,1.307-1.545,1.715-2.202    c0.258-0.43,0.191-0.527-0.143-0.811l-0.494-0.419l0.34-0.401l2.314,1.959l-0.342,0.401l-0.346-0.293    c-0.322-0.272-0.383-0.325-0.518-0.167l-3.646,4.308c-1.895,2.239-4.275,1.687-5.846,0.356c-2.525-2.138-2.059-4.042-0.938-5.368    l2.74-3.236c1.361-1.606,1.328-1.718,0.932-2.053l-0.557-0.472l0.34-0.402l3.205,2.714L174.283,64.811"/>
		<path fill="#FFCC00" d="M182.156,83.454l7.699-1.768l1.641,2.216l-0.424,0.313l-0.434-0.587c-0.125-0.169-0.223-0.138-0.35-0.043    l-5.344,3.957c-1.691,1.253-1.684,1.369-1.377,1.786l0.436,0.586l-0.424,0.313l-2.5-3.375l0.424-0.313l0.434,0.586    c0.127,0.17,0.223,0.139,0.35,0.044l6.074-4.498l-0.02-0.026l-8.49,1.93c-0.084,0.021-0.268,0.097-0.334,0.005    c-0.068-0.091,0.057-0.244,0.102-0.317l4.063-7.429l-0.02-0.026l-3.383,2.506c-0.705,0.522-1.627,1.205-2.174,1.752    c-0.35,0.359-0.307,0.47-0.047,0.821l0.387,0.521l-0.424,0.313l-1.805-2.438l0.424-0.313l0.27,0.365    c0.25,0.339,0.299,0.404,0.465,0.281l5.408-4.005c1.115-0.826,1.668-1.338,1.129-2.067l-0.262-0.352l0.424-0.313l1.844,2.489    L182.156,83.454"/>
		<path fill="#FFCC00" d="M186.006,93.922l0.299,0.667c0.086,0.192,0.186,0.183,0.33,0.118l6.072-2.713    c1.922-0.858,1.939-0.974,1.729-1.447l-0.299-0.666l0.48-0.215l3.24,7.256c-1.455,0.455-1.564,0.485-1.631,0.337    c-0.084-0.192,0.018-0.273,0.215-0.38c0.24-0.125,0.24-1.065-0.514-2.754l-0.475-1.066c-0.066-0.147-0.131-0.173-0.275-0.107    l-3.189,1.424l0.615,1.377c0.701,1.57,0.902,1.552,1.324,1.362l0.51-0.228l0.197,0.444l-2.561,1.145l-0.199-0.444l0.523-0.233    c0.248-0.111,0.381-0.242-0.318-1.812l-0.615-1.377l-1.063,0.476c-3.102,1.385-3.119,1.464-2.895,1.967l0.232,0.519    c0.357,0.8,1.256,2.813,2.262,2.915c0.129,0.014,0.229,0.004,0.289,0.137c0.045,0.104,0,0.196-0.104,0.241    c-0.131,0.059-0.381,0.082-1.555,0.233l-3.107-6.96L186.006,93.922"/>
		<path fill="#FFCC00" d="M195.053,114.078l3.303-0.716c0.857-0.186,1.98-0.429,2.703-0.701c0.467-0.185,0.475-0.302,0.381-0.729    l-0.137-0.634l0.514-0.112l0.643,2.964l-0.514,0.111l-0.098-0.443c-0.09-0.412-0.105-0.491-0.309-0.447l-9.148,1.981    c-0.107,0.024-0.197-0.007-0.221-0.117c-0.027-0.127,0.076-0.249,0.303-0.563l6.305-8.7l-4.316,0.936    c-0.857,0.186-1.98,0.429-2.703,0.701c-0.467,0.185-0.475,0.302-0.381,0.73l0.137,0.634L191,109.083l-0.643-2.964l0.514-0.111    l0.098,0.444c0.088,0.411,0.105,0.49,0.309,0.447l7.09-1.537c0.873-0.189,1.5-0.689,1.365-1.308l-0.1-0.46l0.514-0.111    l0.594,2.742L195.053,114.078"/>
		<path fill="#FFCC00" d="M200.953,141.927l0.16-0.712c0.047-0.206-0.039-0.259-0.195-0.293l-5.229-1.174    c-1.229-0.276-3.49-0.685-4.07,1.895c-0.16,0.712-0.525,3.073,2.602,3.775l2.428,0.545c0.855,0.192,1.975,0.443,2.748,0.501    c0.5,0.028,0.555-0.075,0.65-0.502l0.143-0.633l0.514,0.115l-0.664,2.959l-0.514-0.115l0.1-0.443    c0.092-0.411,0.109-0.49-0.092-0.536l-5.51-1.236c-2.861-0.644-3.475-3.008-3.023-5.018c0.725-3.228,2.629-3.698,4.324-3.317    l4.139,0.929c2.055,0.462,2.137,0.381,2.252-0.125l0.158-0.713l0.514,0.116l-0.92,4.098L200.953,141.927"/>
		<path fill="#FFCC00" d="M188.734,150.538l-0.301,0.665c-0.086,0.192-0.014,0.261,0.133,0.326l6.057,2.741    c1.918,0.868,2.018,0.806,2.23,0.333l0.301-0.665l0.48,0.217l-3.275,7.238c-1.307-0.786-1.402-0.848-1.336-0.995    c0.088-0.191,0.217-0.169,0.426-0.092c0.256,0.097,0.957-0.528,1.721-2.213l0.48-1.063c0.066-0.148,0.043-0.212-0.102-0.278    l-3.182-1.438l-0.621,1.373c-0.709,1.566-0.563,1.704-0.141,1.895l0.508,0.229l-0.199,0.444l-2.559-1.157l0.201-0.443l0.523,0.236    c0.246,0.112,0.434,0.126,1.143-1.44l0.621-1.374l-1.061-0.479c-3.096-1.4-3.164-1.36-3.393-0.859l-0.234,0.518    c-0.361,0.798-1.27,2.808-0.678,3.627c0.076,0.104,0.148,0.174,0.088,0.307c-0.047,0.104-0.145,0.13-0.248,0.084    c-0.131-0.06-0.314-0.232-1.205-1.009l3.141-6.943L188.734,150.538"/>
	</g>
</g>
</svg>